<?xml version="1.0" encoding="UTF-8"?>
<svg id="_图层_1" data-name="图层 1" xmlns="http://www.w3.org/2000/svg" xmlns:xlink="http://www.w3.org/1999/xlink" viewBox="0 0 360.52 40">
  <defs>
    <style>
      .cls-1 {
        fill: url(#_未命名的渐变_808-11);
      }

      .cls-1, .cls-2, .cls-3, .cls-4, .cls-5 {
        fill-rule: evenodd;
      }

      .cls-2 {
        fill: url(#_未命名的渐变_808);
      }

      .cls-6 {
        fill: url(#_未命名的渐变_808-6);
      }

      .cls-3 {
        fill: url(#_未命名的渐变_808-8);
      }

      .cls-4 {
        fill: url(#_未命名的渐变_808-3);
      }

      .cls-7 {
        fill: url(#_未命名的渐变_808-2);
      }

      .cls-8 {
        fill: url(#_未命名的渐变_808-10);
      }

      .cls-9 {
        fill: url(#_未命名的渐变_808-5);
      }

      .cls-10 {
        fill: url(#_未命名的渐变_808-9);
      }

      .cls-11 {
        fill: url(#_未命名的渐变_808-4);
      }

      .cls-12 {
        fill: #e50012;
      }

      .cls-5 {
        fill: url(#_未命名的渐变_808-7);
      }
    </style>
    <linearGradient id="_未命名的渐变_808" data-name="未命名的渐变 808" x1="72.33" y1="36.47" x2="72.33" y2="-.69" gradientUnits="userSpaceOnUse">
      <stop offset="0" stop-color="#f5f5f5"/>
      <stop offset=".33" stop-color="#f2f3f4"/>
      <stop offset=".46" stop-color="#ebf0f2"/>
      <stop offset=".57" stop-color="#dfe9ef"/>
      <stop offset=".65" stop-color="#cddfeb"/>
      <stop offset=".73" stop-color="#b6d3e6"/>
      <stop offset=".79" stop-color="#9ac3df"/>
      <stop offset=".85" stop-color="#78b1d7"/>
      <stop offset=".91" stop-color="#509cce"/>
      <stop offset=".96" stop-color="#2585c4"/>
      <stop offset="1" stop-color="#0071bc"/>
    </linearGradient>
    <linearGradient id="_未命名的渐变_808-2" data-name="未命名的渐变 808" x1="166.26" y1="36.47" x2="166.26" y2="-.69" xlink:href="#_未命名的渐变_808"/>
    <linearGradient id="_未命名的渐变_808-3" data-name="未命名的渐变 808" x1="250.61" y1="36.47" x2="250.61" y2="-.69" xlink:href="#_未命名的渐变_808"/>
    <linearGradient id="_未命名的渐变_808-4" data-name="未命名的渐变 808" x1="192.2" y1="36.47" x2="192.2" y2="-.69" xlink:href="#_未命名的渐变_808"/>
    <linearGradient id="_未命名的渐变_808-5" data-name="未命名的渐变 808" x1="212.41" y1="36.47" x2="212.41" y2="-.69" xlink:href="#_未命名的渐变_808"/>
    <linearGradient id="_未命名的渐变_808-6" data-name="未命名的渐变 808" x1="212.41" y1="36.47" x2="212.41" y2="-.69" xlink:href="#_未命名的渐变_808"/>
    <linearGradient id="_未命名的渐变_808-7" data-name="未命名的渐变 808" x1="348.26" y1="36.47" x2="348.26" y2="-.69" xlink:href="#_未命名的渐变_808"/>
    <linearGradient id="_未命名的渐变_808-8" data-name="未命名的渐变 808" x1="283.57" y1="36.47" x2="283.57" y2="-.69" xlink:href="#_未命名的渐变_808"/>
    <linearGradient id="_未命名的渐变_808-9" data-name="未命名的渐变 808" x1="348.26" y1="36.47" x2="348.26" y2="-.69" xlink:href="#_未命名的渐变_808"/>
    <linearGradient id="_未命名的渐变_808-10" data-name="未命名的渐变 808" x1="315.91" y1="36.47" x2="315.91" y2="-.69" xlink:href="#_未命名的渐变_808"/>
    <linearGradient id="_未命名的渐变_808-11" data-name="未命名的渐变 808" x1="311.88" y1="36.47" x2="311.88" y2="-.69" xlink:href="#_未命名的渐变_808"/>
  </defs>
  <path class="cls-2" d="M95.9,27.88v-2.83l5.23-.91V5.49h3.91v17.96l2.34-.41v2.83l-2.34.41v7.5h-3.91v-6.81l-5.23.91h0ZM95.9,20.22l2.94,1.61v-3.81l-2.94-1.61v3.81h0ZM95.9,12.5l2.94,1.61v-3.81l-2.94-1.61v3.81h0ZM130.82,27.77c-2.54-2.44-4.44-4.85-5.91-8.07l-.04-.1h4.75l.02.03c1.22,2.11,2.61,4.05,4.34,5.76,2.07-1.93,3.77-4.44,4.9-7.04h-14.48v-2.66h7.32v-3.97h-7.45v-2.66h7.45v-3.58h4.35v3.58h8.33v2.66h-8.33v3.97h7.36v2.76c-1.34,3.58-3.34,6.85-6.29,9.32,2.22,1.46,4.93,2.6,7.48,3.33h.05v2.71h-.08c-3.84-.65-7.3-2.04-10.75-3.79-3.56,1.77-7.07,2.93-11.11,3.75v-2.87c2.76-.85,5.6-1.66,8.09-3.14h0ZM115.04,11.83h-4.52v-2.66h4.52v-3.68h4.08v3.68h3.6v2.66h-3.6v8.29l3.6-1.08v3.04l-3.6,1.08v5.9c0,4.17-3.02,4.58-6.43,4.71h-.07s0-2.57,0-2.57h.07c1.5-.07,2.36-.77,2.36-2.32v-4.73l-4.52,1.21v-3.04l4.52-1.21v-9.29ZM95.9,8.69v3.81l-2.94-1.61v-3.81l2.94,1.61h0ZM95.9,16.41v3.81l-2.94-1.61v-3.81l2.94,1.61h0ZM95.9,25.05v2.83l-3.16.55v-2.83l3.16-.55h0ZM88.44,33.77v-16.44h1.78v16.44h-1.78ZM88.44,15.48v-2.66h1.95v2.66h-1.95ZM88.44,9v-2.68l1.5-.11v2.68l-1.5.11ZM88.44,6.32v2.68l-4.3.33v3.5h4.3v2.66h-4.3v18.29h-3.84V15.48h-4.46v-2.66h4.46v-3.19l-4.46.33v-2.68l12.6-.96h0ZM88.44,17.34h-1.78v16.44h1.78v-16.44h0ZM75.83,33.16c.77-.38,1.4-.99,1.7-1.93.13-.41.18-.86.22-1.29.06-.66.08-1.33.09-1.99l.1-10.55h-2.1v15.76ZM75.83,7.29v2.68l-1.55.12v-2.68l1.55-.12h0ZM75.83,12.83v2.66h-2.1v-2.66h2.1ZM75.83,17.41v15.76c-.72.35-1.56.52-2.39.59h-.08s0-2.62,0-2.62l.02-.02c.48-.43.76-.84.81-1.49.01-.16.01-.31.01-.47l.21-11.75h1.41ZM61.46,19.17v-2.66h3.49v-7.64h-3.49v-2.66h9.1v2.66h-1.95v7.64h2.28v2.66h-2.28v14.6h-3.67v-14.6h-3.49ZM61.46,6.22v2.66h-3.49v7.64h3.49v2.66h-3.49v6.1c0,4.92-2.27,7.55-7.03,8.59l-.08.02v-2.76l.04-.02c2.56-1.28,3.36-3.21,3.37-5.98l.04-5.95h-2.86v-2.66h2.86v-7.64h-2.15v-2.66h9.31ZM43.94,32.61v-2.66h.9c.65,0,.97-.34,1.16-.93v-12.16h-2.06v-2.66h5.71v3.07s.02,12.36.02,12.36c0,.53-.2,1.14-.49,1.59-.68,1.05-1.85,1.38-3.03,1.38h-2.21ZM43.94,9.05v-2.66h5.71v2.66h-5.71ZM43.94,6.39v2.66h-.53c-.2,1.72-.39,3.55-.85,5.28h1.46v2.66h-2.39v13.38h2.39v2.66h-6.62v-11.51c-.55.29-1.11.56-1.68.82l-.25.11v-3.41l.03-.02c1.97-1.58,3.31-7.56,3.54-9.99h-3.5v-2.66h8.5ZM39.34,31.57c.9-.62,1.5-1.53,1.5-2.94v-7.37c-2.13.86-4.3,1.58-6.52,2.07v2.66c.76-.17,1.51-.37,2.27-.58v5.21c0,2.61-1.38,4.42-5.37,4.65h-.15v-2.66h.05c1.89-.13,2.31-.84,2.31-2.38v-3.77c-.78.16-1.57.29-2.37.38v-2.66c.96-.17,1.93-.37,2.89-.6v-5.98c-1.4.36-2.81.66-4.23.9l-.03-.01v-2.65h.04c4.99-.81,9.86-2.06,14.12-4.23l.04-.03v3.51l-.04.02c-1.2.58-2.4,1.1-3.63,1.58v4.89c1.21-.48,2.41-1,3.59-1.59l.04-.02v3.45l-.04.02c-1.17.57-2.36,1.09-3.56,1.57v7.87ZM15.67,32.73v-2.66h2.63V20.14h-2.63v-2.66h2.63V6.55h-1.93v-2.66h1.93V.11h3.59v3.78h3.37v2.66h-3.37v10.93c1.1,0,2.19-.07,3.27-.18v2.66c-1.08.1-2.18.17-3.27.17v9.93h2.39v2.66h-6.62ZM15.5,8.32V5.66h3.59v2.66h-3.59ZM15.39,5.66v2.66h-9.88v7.81h-2.08v-2.66H2.68V5.66h3.64V2.45h3.59v3.21h5.48ZM0,34.07v-2.66h8.39V.11H0v35.95Z"/>
  <rect class="cls-7" x="165.4" width="1.71" height="38.46"/>
  <g>
    <path class="cls-4" d="M259.59,18.79v-2.72h4.05v-7.81h-4.05v-2.72h10.57v2.72h-2.26v7.81h2.64v2.72h-2.64v14.92h-4.26v-14.92h-4.05ZM259.59,5.55v2.72h-4.05v7.81h4.05v2.72h-4.05v6.23c0,5.03-2.63,7.71-8.16,8.78l-.1.02v-2.82l.04-.02c2.97-1.31,3.89-3.28,3.91-6.11l.04-6.08h-3.32v-2.72h3.32v-7.81h-2.5v-2.72h10.8ZM239.26,32.52v-2.72h1.05c.75,0,1.13-.34,1.35-.95v-12.43h-2.39v-2.72h6.63v3.14s.02,12.64.02,12.64c0,.54-.23,1.16-.57,1.62-.78,1.07-2.14,1.41-3.52,1.41h-2.56ZM239.26,8.44v-2.72h6.63v2.72h-6.63ZM239.26,5.73v2.72h-.61c-.24,1.75-.46,3.55-.85,5.28h1.46v2.72h-2.39v13.38h2.39v2.72h-6.62v-11.51c-.55.29-1.11.57-1.68.82l-.25.11v-3.41l.03-.02c1.97-1.58,3.31-7.56,3.54-9.99h-3.5v-2.66h8.5Z"/>
    <g>
      <polygon class="cls-11" points="194.55 11.48 194.55 5.52 189.85 5.52 189.85 11.48 187.85 11.48 187.85 14.26 189.85 14.26 189.85 33.35 194.55 33.35 194.55 14.26 196.55 14.26 196.55 11.48 194.55 11.48"/>
      <path class="cls-9" d="M225.55,25.55v-.81h-4.7v.81h-24.1v2.78h24.1v3.12h-3.6v2.43h6.21c1.15,0,2.09-.93,2.09-2.09v-3.47h2.51v-2.78h-2.51ZM200.94,32.54l11.86.5v-2.43l-11.86-.5v2.43Z"/>
      <path class="cls-6" d="M222.92,5.49v.7c0,.19-.16.35-.35.35h-7.86v-1.01h-4.7v1.01h-12.39v2.43h12.39v1.62h-11.87v13.04h4.7v-1.86h7.18v1.86h4.7v-1.86h7.26v1.86h3.65c.58,0,1.04-.47,1.04-1.04v-12h-11.96v-1.62h10.74c.96,0,1.74-.78,1.74-1.74v-1.74h-4.27ZM202.84,13.37h7.18v1.76h-7.18v-1.76ZM202.84,19.34v-1.76h7.18v1.76h-7.18ZM221.97,19.34h-7.26v-1.76h7.26v1.76ZM221.97,13.37v1.76h-7.26v-1.76h7.26Z"/>
    </g>
  </g>
  <path class="cls-5" d="M344.07,1.54v36.25h8.39V1.54h-8.39Z"/>
  <path class="cls-3" d="M279.37,1.54v32.32h8.39V1.54h-8.39Z"/>
  <rect class="cls-10" x="336" y="1.54" width="24.52" height="5.77"/>
  <rect class="cls-8" x="279.37" y="36.73" width="73.08" height="3.27"/>
  <path class="cls-12" d="M330.85,5.53v14.82l-18.8-18.8h14.82c2.2,0,3.98,1.78,3.98,3.98Z"/>
  <path class="cls-1" d="M322.46,26.46c0,.9-.73,1.63-1.63,1.63h-17.89c-.9,0-1.63-.73-1.63-1.63V8.95c0-.9.73-1.63,1.63-1.63h9.16l-5.77-5.77h-9.44c-2.2,0-3.98,1.78-3.98,3.98v24.36c0,2.2,1.78,3.98,3.98,3.98h29.98c2.2,0,3.98-1.78,3.98-3.98v-3.82l-8.39-8.39v8.78Z"/>
</svg>
