<?xml version="1.0" encoding="UTF-8"?>
<svg id="_图层_1" data-name="图层 1" xmlns="http://www.w3.org/2000/svg" xmlns:xlink="http://www.w3.org/1999/xlink" viewBox="0 0 558 61.91">
  <defs>
    <style>
      .cls-1 {
        fill: url(#_未命名的渐变_808-11);
      }

      .cls-1, .cls-2, .cls-3, .cls-4, .cls-5 {
        fill-rule: evenodd;
      }

      .cls-6 {
        filter: url(#drop-shadow-21);
      }

      .cls-2 {
        fill: url(#_未命名的渐变_808);
      }

      .cls-7 {
        fill: url(#_未命名的渐变_808-6);
      }

      .cls-3 {
        fill: url(#_未命名的渐变_808-8);
      }

      .cls-4 {
        fill: url(#_未命名的渐变_808-3);
      }

      .cls-8 {
        fill: url(#_未命名的渐变_808-2);
      }

      .cls-9 {
        fill: url(#_未命名的渐变_808-10);
      }

      .cls-10 {
        fill: url(#_未命名的渐变_808-5);
      }

      .cls-11 {
        fill: url(#_未命名的渐变_808-9);
      }

      .cls-12 {
        fill: url(#_未命名的渐变_808-4);
      }

      .cls-13 {
        fill: #e50012;
      }

      .cls-5 {
        fill: url(#_未命名的渐变_808-7);
      }
    </style>
    <filter id="drop-shadow-21" x="-88.54" y="-88.63" width="739" height="243" filterUnits="userSpaceOnUse">
      <feOffset dx="2" dy="2"/>
      <feGaussianBlur result="blur" stdDeviation="30"/>
      <feFlood flood-color="#000" flood-opacity=".95"/>
      <feComposite in2="blur" operator="in"/>
      <feComposite in="SourceGraphic"/>
    </filter>
    <linearGradient id="_未命名的渐变_808" data-name="未命名的渐变 808" x1="111.95" y1="56.44" x2="111.95" y2="-1.07" gradientUnits="userSpaceOnUse">
      <stop offset="0" stop-color="#f5f5f5"/>
      <stop offset=".33" stop-color="#f2f3f4"/>
      <stop offset=".46" stop-color="#ebf0f2"/>
      <stop offset=".57" stop-color="#dfe9ef"/>
      <stop offset=".65" stop-color="#cddfeb"/>
      <stop offset=".73" stop-color="#b6d3e6"/>
      <stop offset=".79" stop-color="#9ac3df"/>
      <stop offset=".85" stop-color="#78b1d7"/>
      <stop offset=".91" stop-color="#509cce"/>
      <stop offset=".96" stop-color="#2585c4"/>
      <stop offset="1" stop-color="#0071bc"/>
    </linearGradient>
    <linearGradient id="_未命名的渐变_808-2" data-name="未命名的渐变 808" x1="257.33" y1="56.44" x2="257.33" y2="-1.07" xlink:href="#_未命名的渐变_808"/>
    <linearGradient id="_未命名的渐变_808-3" data-name="未命名的渐变 808" x1="387.89" y1="56.44" x2="387.89" y2="-1.07" xlink:href="#_未命名的渐变_808"/>
    <linearGradient id="_未命名的渐变_808-4" data-name="未命名的渐变 808" x1="297.48" y1="56.44" x2="297.48" y2="-1.07" xlink:href="#_未命名的渐变_808"/>
    <linearGradient id="_未命名的渐变_808-5" data-name="未命名的渐变 808" x1="328.76" y1="56.44" x2="328.76" y2="-1.07" xlink:href="#_未命名的渐变_808"/>
    <linearGradient id="_未命名的渐变_808-6" data-name="未命名的渐变 808" x1="328.76" y1="56.44" x2="328.76" y2="-1.07" xlink:href="#_未命名的渐变_808"/>
    <linearGradient id="_未命名的渐变_808-7" data-name="未命名的渐变 808" x1="539.03" y1="56.44" x2="539.03" y2="-1.07" xlink:href="#_未命名的渐变_808"/>
    <linearGradient id="_未命名的渐变_808-8" data-name="未命名的渐变 808" x1="438.9" y1="56.44" x2="438.9" y2="-1.07" xlink:href="#_未命名的渐变_808"/>
    <linearGradient id="_未命名的渐变_808-9" data-name="未命名的渐变 808" x1="539.03" y1="56.44" x2="539.03" y2="-1.07" xlink:href="#_未命名的渐变_808"/>
    <linearGradient id="_未命名的渐变_808-10" data-name="未命名的渐变 808" x1="488.96" y1="56.44" x2="488.96" y2="-1.07" xlink:href="#_未命名的渐变_808"/>
    <linearGradient id="_未命名的渐变_808-11" data-name="未命名的渐变 808" x1="482.72" y1="56.44" x2="482.72" y2="-1.07" xlink:href="#_未命名的渐变_808"/>
  </defs>
  <g class="cls-6">
    <path class="cls-2" d="M148.44,43.15v-4.37l8.09-1.42V8.49h6.05v27.8l3.61-.63v4.37l-3.61.63v11.6h-6.05v-10.54l-8.09,1.42h0ZM148.44,31.3l4.55,2.5v-5.89l-4.55-2.5v5.89h0ZM148.44,19.34l4.55,2.5v-5.89l-4.55-2.5v5.89h0ZM202.48,42.98c-3.92-3.77-6.87-7.5-9.14-12.49l-.07-.15h7.36l.03.05c1.88,3.26,4.03,6.26,6.71,8.92,3.21-2.99,5.84-6.87,7.58-10.9h-22.42v-4.11h11.33v-6.15h-11.54v-4.11h11.54v-5.54h6.74v5.54h12.89v4.11h-12.89v6.15h11.38v4.27c-2.07,5.55-5.17,10.6-9.73,14.43,3.44,2.26,7.63,4.02,11.58,5.16l.08.02v4.17l-.12-.02c-5.94-.98-11.29-3.14-16.63-5.85-5.52,2.74-10.94,4.54-17.19,5.8v-4.45c4.27-1.31,8.67-2.56,12.52-4.86h0ZM178.06,18.31h-7v-4.11h7v-5.7h6.31v5.7h5.58v4.11h-5.58v12.84l5.58-1.67v4.7l-5.58,1.67v9.13c0,6.45-4.67,7.09-9.95,7.3h-.11s0-3.97,0-3.97h.1c2.32-.1,3.65-1.19,3.65-3.6v-7.32l-7,1.88v-4.7l7-1.88v-14.37ZM148.44,13.45v5.89l-4.54-2.5v-5.89l4.54,2.5h0ZM148.44,25.41v5.89l-4.54-2.5v-5.89l4.54,2.5h0ZM148.44,38.77v4.37l-4.89.86v-4.37l4.89-.86h0ZM136.88,52.27v-25.44h2.75v25.44h-2.75ZM136.88,23.96v-4.11h3.01v4.11h-3.01ZM136.88,13.93v-4.14l2.32-.18v4.14l-2.32.18ZM136.88,9.79v4.14l-6.66.51v5.41h6.66v4.11h-6.66v28.31h-5.94v-28.31h-6.9v-4.11h6.9v-4.94l-6.9.51v-4.15l19.51-1.49h0ZM136.88,26.83h-2.75v25.44h2.75v-25.44h0ZM117.37,51.33c1.19-.59,2.16-1.53,2.63-2.99.2-.64.28-1.33.34-1.99.09-1.03.12-2.06.13-3.09l.15-16.33h-3.26v24.39ZM117.37,11.28v4.15l-2.4.18v-4.15l2.4-.18h0ZM117.37,19.85v4.11h-3.26v-4.11h3.26ZM117.37,26.94v24.39c-1.11.55-2.41.8-3.7.91h-.12s0-4.05,0-4.05l.04-.03c.74-.67,1.18-1.31,1.25-2.31.02-.24.02-.49.02-.73l.33-18.18h2.18ZM95.12,29.68v-4.11h5.4v-11.83h-5.4v-4.11h14.09v4.11h-3.02v11.83h3.52v4.11h-3.52v22.59h-5.68v-22.59h-5.4ZM95.12,9.62v4.11h-5.4v11.83h5.4v4.11h-5.4v9.44c0,7.61-3.51,11.68-10.88,13.29l-.13.03v-4.27l.06-.03c3.95-1.98,5.19-4.97,5.22-9.25l.06-9.21h-4.43v-4.11h4.43v-11.83h-3.33v-4.11h14.41ZM68.01,50.47v-4.11h1.4c1,0,1.51-.52,1.79-1.44v-18.82h-3.19v-4.11h8.84v4.75s.02,19.14.02,19.14c0,.82-.31,1.76-.75,2.45-1.05,1.62-2.86,2.14-4.69,2.14h-3.42ZM68.01,14v-4.11h8.84v4.11h-8.84ZM68.01,9.89v4.11h-.82c-.31,2.66-.61,5.37-1.14,7.99h1.95v4.11h-3.19v20.26h3.19v4.11h-8.87v-17.52c-.74.44-1.48.86-2.24,1.26l-.33.17v-5.18l.04-.03c2.62-2.39,4.41-11.5,4.72-15.17h-4.67v-4.11h11.35ZM38.79,46.12v-4.11h6.89v-2.35h-6.89v-4.11h6.89v-2.35h-6.89v-4.12h12.71v17.44c0,3.66-2.34,5.75-5.93,5.75h-1.38v-4.11h.1c.57-.02,1.39-.06,1.39-.82v-1.21h-6.89ZM38.79,26.75V8.49h2.08v1.49h10.63v4.11h-10.63v2.21h9.88v4.11h-9.88v2.21h11.39v4.11h-13.47ZM38.79,8.49v18.25h-13.49v-4.11h10.06v-2.21h-8.53v-4.11h8.53v-2.21h-9.28v-4.11h9.28v-1.49h3.43ZM38.79,29.06v4.12h-6.89v2.35h6.89v4.11h-6.89v2.35h6.89v4.11h-6.89v6.15h-5.65v-23.2h12.53ZM20.14,52.26v-22.85h2.65v22.85h-2.65ZM20.14,26.74v-4.11h2.65v4.11h-2.65ZM20.14,19.66v-10.61h2.73l-.77,10.61h-1.97ZM3.09,29.41h3.09l-.14,12.88c-.02,1.53-.03,3.07-.28,4.58-.18,1.08-.5,2.17-1.19,3.05-.41.51-.92.91-1.48,1.21v-21.72h0ZM20.14,9.05v10.61h-3.33l.77-10.61h2.56ZM20.14,22.63h-5.52v-14.13h-5.68v14.13H3.09v4.11h5.84v25.5h5.68v-25.5h5.52v-4.11h0ZM20.14,29.41v22.85h-2.65v-22.85h2.65ZM3.09,19.66v-10.58h2.65l.77,10.58h-3.42ZM0,48.58c.68-.41.69-1.76.7-2.43l.2-16.74h2.19v21.72c-.94.51-2.04.78-3.09.95v-3.5h0ZM3.09,9.08v10.58h-1.58l-.77-10.58h2.35ZM3.09,22.63v4.11H0v-4.11h3.09Z"/>
    <rect class="cls-8" x="256.01" width="2.65" height="59.53"/>
    <g>
      <path class="cls-4" d="M401.79,29.09v-4.2h6.27v-12.09h-6.27v-4.2h16.35v4.2h-3.5v12.09h4.09v4.2h-4.09v23.09h-6.59v-23.09h-6.27ZM401.79,8.59v4.2h-6.27v12.09h6.27v4.2h-6.27v9.65c0,7.78-4.07,11.94-12.63,13.59l-.15.03v-4.36l.07-.03c4.59-2.02,6.03-5.08,6.06-9.46l.06-9.42h-5.14v-4.2h5.14v-12.09h-3.86v-4.2h16.72ZM370.32,50.34v-4.2h1.62c1.16,0,1.75-.53,2.08-1.47v-19.23h-3.7v-4.2h10.26v4.85s.03,19.56.03,19.56c-.01.84-.36,1.8-.88,2.51-1.21,1.65-3.32,2.19-5.45,2.19h-3.96ZM370.32,13.06v-4.2h10.25v4.2h-10.25ZM370.32,8.86v4.2h-.95c-.37,2.71-.71,5.49-1.32,8.17h2.27v4.2h-3.7v20.7h3.7v4.2h-10.29v-17.91c-.85.45-1.72.88-2.6,1.28l-.38.18v-5.29l.04-.03c3.04-2.44,5.12-11.75,5.48-15.5h-5.42v-4.2h13.17Z"/>
      <g>
        <polygon class="cls-12" points="301.12 17.76 301.12 8.54 293.85 8.54 293.85 17.76 290.75 17.76 290.75 22.07 293.85 22.07 293.85 51.61 301.12 51.61 301.12 22.07 304.21 22.07 304.21 17.76 301.12 17.76"/>
        <path class="cls-10" d="M349.1,39.54v-1.25h-7.27v1.25h-37.3v4.31h37.3v4.83h-5.57v3.77h9.61c1.78,0,3.23-1.45,3.23-3.23v-5.36h3.89v-4.31h-3.89ZM311.01,50.36l18.36.78v-3.77l-18.36-.78v3.77Z"/>
        <path class="cls-7" d="M345.03,8.49v1.08c0,.3-.24.54-.54.54h-12.17v-1.57h-7.27v1.57h-19.18v3.77h19.18v2.51h-18.38v20.19h7.27v-2.88h11.11v2.88h7.27v-2.88h11.24v2.88h5.65c.89,0,1.62-.72,1.62-1.62v-18.57h-18.5v-2.51h16.62c1.49,0,2.69-1.21,2.69-2.69v-2.69h-6.61ZM313.95,20.7h11.11v2.73h-11.11v-2.73ZM313.95,29.93v-2.73h11.11v2.73h-11.11ZM343.56,29.93h-11.24v-2.73h11.24v2.73ZM343.56,20.7v2.73h-11.24v-2.73h11.24Z"/>
      </g>
    </g>
    <path class="cls-5" d="M532.54,2.38v56.11h12.98V2.38h-12.98Z"/>
    <path class="cls-3" d="M432.41,2.38v50.03h12.98V2.38h-12.98Z"/>
    <rect class="cls-11" x="520.06" y="2.38" width="37.95" height="8.93"/>
    <rect class="cls-9" x="432.41" y="56.85" width="113.11" height="5.06"/>
    <path class="cls-13" d="M512.08,8.55v22.94l-29.09-29.09h22.94c3.4,0,6.16,2.76,6.16,6.16Z"/>
    <path class="cls-1" d="M499.1,40.95c0,1.4-1.13,2.53-2.53,2.53h-27.69c-1.4,0-2.53-1.13-2.53-2.53V13.85c0-1.4,1.13-2.53,2.53-2.53h14.18l-8.93-8.93h-14.61c-3.4,0-6.16,2.76-6.16,6.16v37.7c0,3.4,2.76,6.16,6.16,6.16h46.4c3.4,0,6.16-2.76,6.16-6.16v-5.91l-12.98-12.98v13.59Z"/>
  </g>
</svg>